<svg width="128" height="128" viewBox="0 0 128 128" fill="none" xmlns="http://www.w3.org/2000/svg">
<path d="M54.5438 55.4133C51.5659 55.4133 49.2148 58.08 49.2148 61.3333C49.2148 64.5867 51.6181 67.2533 54.5438 67.2533C57.5218 67.2533 59.8728 64.5867 59.8728 61.3333C59.925 58.08 57.5218 55.4133 54.5438 55.4133ZM73.6132 55.4133C70.6352 55.4133 68.2842 58.08 68.2842 61.3333C68.2842 64.5867 70.6875 67.2533 73.6132 67.2533C76.5912 67.2533 78.9422 64.5867 78.9422 61.3333C78.9422 58.08 76.5912 55.4133 73.6132 55.4133Z" fill="#7289DA"/>
<path d="M99.0044 10.6667H28.9962C23.0925 10.6667 18.286 15.5734 18.286 21.6534V93.76C18.286 99.84 23.0925 104.747 28.9962 104.747H88.2419L85.473 94.88L92.1603 101.227L98.4819 107.2L109.715 117.333V21.6534C109.715 15.5734 104.908 10.6667 99.0044 10.6667ZM78.8378 80.32C78.8378 80.32 76.957 78.0267 75.3897 76C82.2338 74.0267 84.846 69.6534 84.846 69.6534C82.704 71.0934 80.6664 72.1067 78.8378 72.8C76.2256 73.92 73.7178 74.6667 71.2623 75.0934C66.2468 76.0534 61.6493 75.7867 57.7309 75.04C54.753 74.4534 52.193 73.6 50.0509 72.7467C48.8493 72.2667 47.5432 71.68 46.237 70.9334C46.0803 70.8267 45.9236 70.7734 45.7668 70.6667C45.6623 70.6134 45.6101 70.56 45.5578 70.5067C44.6174 69.9734 44.095 69.6 44.095 69.6C44.095 69.6 46.6027 73.8667 53.2379 75.8934C51.6705 77.92 49.7374 80.32 49.7374 80.32C38.1913 79.9467 33.8027 72.2134 33.8027 72.2134C33.8027 55.04 41.326 41.12 41.326 41.12C48.8493 35.36 56.0068 35.52 56.0068 35.52L56.5293 36.16C47.1252 38.9334 42.7889 43.1467 42.7889 43.1467C42.7889 43.1467 43.9383 42.5067 45.8713 41.6C51.4615 39.0934 55.9023 38.4 57.7309 38.24C58.0444 38.1867 58.3056 38.1334 58.6191 38.1334C61.806 37.7067 65.4109 37.6 69.1725 38.0267C74.1358 38.6134 79.4648 40.1067 84.8983 43.1467C84.8983 43.1467 80.7709 39.1467 71.8893 36.3734L72.6207 35.52C72.6207 35.52 79.7783 35.36 87.3015 41.12C87.3015 41.12 94.8248 55.04 94.8248 72.2134C94.8248 72.2134 90.384 79.9467 78.8378 80.32Z" fill="#7289DA"/>
</svg>
